<?xml version="1.0" standalone="no"?>
<!DOCTYPE svg PUBLIC "-//W3C//DTD SVG 20010904//EN"
 "http://www.w3.org/TR/2001/REC-SVG-20010904/DTD/svg10.dtd">
<svg version="1.0" xmlns="http://www.w3.org/2000/svg"
 width="512.000000pt" height="512.000000pt" viewBox="0 0 512.000000 512.000000"
 preserveAspectRatio="xMidYMid meet">

<g transform="translate(0.000000,512.000000) scale(0.100000,-0.100000)"
fill="#000000" stroke="none">
<path d="M590 4261 c-104 -32 -160 -106 -160 -211 0 -84 53 -161 132 -194 33
-14 197 -16 1466 -16 l1428 0 53 26 c127 64 155 219 59 328 -71 81 39 76
-1547 75 -773 0 -1417 -4 -1431 -8z"/>
<path d="M539 2747 c-24 -13 -57 -43 -74 -66 -27 -39 -30 -50 -30 -120 0 -68
3 -82 27 -117 15 -21 44 -50 65 -64 l37 -25 1996 0 1996 0 37 25 c21 14 50 43
65 64 24 35 27 49 27 116 0 67 -3 81 -27 116 -15 21 -44 50 -65 64 l-37 25
-1986 3 -1987 2 -44 -23z"/>
<path d="M560 1264 c-78 -34 -130 -111 -130 -194 0 -88 38 -152 115 -193 l40
-22 910 0 910 0 47 28 c84 49 124 149 97 244 -16 59 -78 124 -135 141 -31 9
-255 12 -930 12 -772 -1 -894 -3 -924 -16z"/>
</g>
</svg>
